<?xml version="1.0" standalone="no"?>
<!DOCTYPE svg PUBLIC "-//W3C//DTD SVG 1.1//EN" "http://www.w3.org/Graphics/SVG/1.1/DTD/svg11.dtd" >
<svg>
<metadata>
Created by FontForge 20120731 at Wed Jan 18 05:19:36 2023
 By ffonts
Created by Muhammad Husni Haikal - Sameeh Media -
</metadata>
<defs>
<font id="Magz" horiz-adv-x="572" >
  <font-face 
    font-family="Magz"
    font-weight="400"
    font-stretch="normal"
    units-per-em="1000"
    panose-1="2 0 5 3 0 0 0 0 0 0"
    ascent="800"
    descent="-200"
    x-height="495"
    cap-height="700"
    bbox="-120 -206 647 701"
    underline-thickness="50"
    underline-position="-100"
    unicode-range="U+001D-007A"
  />
<missing-glyph horiz-adv-x="364" 
d="M66 0h265v666h-265v-666zM99 33v600h199v-600h-199z" />
    <glyph glyph-name=".notdef" horiz-adv-x="364" 
d="M66 0h265v666h-265v-666zM99 33v600h199v-600h-199z" />
    <glyph glyph-name=".null" horiz-adv-x="0" 
 />
    <glyph glyph-name=".null" horiz-adv-x="0" 
 />
    <glyph glyph-name="nonmarkingreturn" horiz-adv-x="333" 
 />
    <glyph glyph-name="space" unicode=" " horiz-adv-x="300" 
 />
    <glyph glyph-name="zero" unicode="0" 
d="M533 141c-4 -29 -7 -49 -9 -60c-6 -30 -14 -51 -24 -62c-9 -8 -24 -14 -45 -17c-14 -1 -40 -2 -79 -2h-5h-220h-5c-44 0 -73 2 -87 4c-20 4 -32 12 -37 25c-2 7 -3 15 -3 25c0 7 1 15 1 24c2 12 4 33 8 63l30 214c4 29 7 49 9 60c6 30 14 50 23 60c10 10 26 16 48 18
c14 2 39 3 75 3h7h220h8c34 0 57 0 69 -2c22 -2 36 -7 44 -15c8 -7 11 -20 11 -38c0 -6 0 -15 -2 -26c0 -10 -3 -30 -7 -60zM342 141h28c8 1 14 3 17 5c4 3 6 9 7 18c1 3 2 7 2 13l19 141c2 12 3 19 3 23s0 6 -2 8c-1 3 -5 5 -11 5c-3 1 -11 1 -23 1h-150h-7
c-5 0 -9 0 -11 -1c-5 0 -9 -2 -11 -5c-2 -2 -3 -6 -5 -12c0 -3 -1 -9 -3 -18l-20 -142c0 -6 -1 -10 -1 -13c0 -4 -1 -7 -1 -10c0 -2 1 -4 1 -6c2 -3 5 -5 9 -6c3 0 8 -1 16 -1h4h139z" />
    <glyph glyph-name="one" unicode="1" horiz-adv-x="216" 
d="M70 355c5 38 9 63 11 75c6 22 13 38 21 46c10 10 24 16 44 18c14 2 39 2 73 2h13l-50 -356c-4 -32 -8 -53 -10 -65c-6 -28 -14 -47 -24 -57c-10 -8 -26 -14 -49 -16c-13 -1 -39 -2 -79 -2z" />
    <glyph glyph-name="two" unicode="2" 
d="M513 0h-142h-220h-22c-31 0 -53 1 -65 3c-18 3 -31 9 -37 18c-4 8 -7 20 -7 34v6c1 13 4 40 9 80l5 36c6 42 10 69 13 82c6 21 13 35 23 43c8 6 18 10 30 12c14 3 42 4 82 4h14h188c11 0 19 3 25 7s9 9 8 15c0 4 -3 8 -7 10c-5 4 -12 5 -21 5h-188h-142c6 45 11 74 15 87
c4 15 10 26 17 33c8 9 22 15 40 17c14 2 44 3 89 3h221c41 0 68 0 80 -2c19 -2 32 -6 39 -13c8 -7 12 -20 12 -39c0 -5 0 -11 -1 -19c0 -11 -3 -33 -8 -67l-5 -37c-5 -38 -9 -64 -12 -77c-5 -22 -12 -37 -22 -46s-28 -14 -54 -16c-12 -1 -31 -2 -58 -2h-16h-181
c-12 0 -21 -1 -29 -5s-12 -9 -12 -15c0 -4 3 -7 8 -11c6 -3 15 -5 26 -5h183c49 0 80 -1 93 -4c18 -2 29 -9 34 -19c4 -6 6 -16 6 -29c0 -6 0 -13 -1 -22c-1 -11 -4 -33 -10 -67z" />
    <glyph glyph-name="three" unicode="3" 
d="M78 496h142h220h23c26 0 45 0 57 -2c20 -2 33 -6 40 -14c8 -7 12 -20 12 -39l-1 -6c0 -14 -2 -40 -8 -80l-5 -37l-11 -73l-9 -67l-5 -37c-6 -46 -12 -76 -16 -90s-10 -24 -18 -32c-9 -8 -24 -14 -45 -16c-13 -2 -41 -3 -83 -3h-220c-45 0 -74 1 -88 3c-18 3 -30 9 -36 17
c-5 8 -8 19 -8 35v5c1 14 4 41 9 81h142h180c10 0 19 2 26 4c10 4 16 8 16 14c1 7 -4 12 -14 15c-6 3 -15 4 -25 4h-178h-11c-39 0 -65 1 -79 3c-16 3 -28 9 -34 17c-4 7 -7 17 -7 29v5c0 14 3 42 9 86h142h182c10 0 19 2 26 5c8 4 13 8 14 13c2 8 -3 13 -16 17
c-5 2 -12 2 -20 2h-181c-46 0 -75 2 -89 4c-17 3 -29 9 -35 18c-4 8 -6 20 -6 34v13c1 12 4 36 8 72z" />
    <glyph glyph-name="four" unicode="4" horiz-adv-x="543" 
d="M35 355c5 36 8 60 10 72c4 20 10 34 16 43c7 10 17 16 29 20c14 4 41 6 81 6h25l-19 -141c-1 -8 -2 -14 -3 -17c0 -5 1 -9 1 -12c2 -3 4 -5 8 -6c4 0 13 -1 26 -2h147c11 1 18 1 21 1c6 1 10 3 12 5c2 3 4 7 5 12c1 4 2 10 3 19l12 78c5 22 12 36 21 44c8 8 20 14 36 16
c14 2 36 3 68 3h25l-20 -141l-5 -37l-20 -140l-5 -37c-5 -37 -9 -62 -12 -75c-4 -18 -9 -32 -16 -41c-9 -12 -25 -19 -48 -22c-13 -2 -42 -3 -86 -3l20 141c2 11 2 18 2 21c1 6 0 10 -3 12c-2 3 -6 3 -13 3c-4 1 -11 1 -22 1h-179h-5c-40 0 -66 1 -80 2c-22 3 -35 10 -41 21
c-4 8 -6 18 -6 31c0 5 1 10 1 16c1 12 4 36 8 70z" />
    <glyph glyph-name="five" unicode="5" horiz-adv-x="568" 
d="M59 355c6 36 9 59 11 71c5 22 11 38 19 47c9 10 23 17 43 20c14 2 41 3 80 3h9h220h142c-6 -41 -11 -68 -15 -82c-4 -17 -10 -30 -18 -38s-20 -14 -37 -17c-14 -2 -39 -4 -76 -4h-15h-181h-1c-14 0 -24 -2 -32 -6c-5 -3 -8 -6 -10 -10c-1 -6 2 -11 10 -15
c8 -3 18 -5 30 -6h178c41 0 68 0 81 -2c21 -2 35 -7 41 -17c6 -8 9 -20 9 -37c0 -7 0 -16 -2 -27c-1 -10 -2 -29 -6 -57l-5 -37c-5 -38 -9 -63 -13 -76c-4 -18 -9 -32 -17 -41c-8 -11 -24 -18 -46 -21c-14 -2 -42 -3 -86 -3h-220c-54 0 -88 2 -102 6c-12 4 -21 11 -26 21
c-2 7 -4 16 -4 28c0 6 1 14 1 22c2 12 4 33 8 64h142h187c8 0 14 2 19 4c6 4 9 8 10 13c2 7 0 12 -6 16c-4 3 -10 4 -17 4h-187h-25c-28 0 -48 1 -61 2c-22 2 -36 9 -43 19c-4 7 -6 16 -6 28v14c2 13 6 39 12 77z" />
    <glyph glyph-name="six" unicode="6" horiz-adv-x="568" 
d="M220 496h220h142c-6 -42 -11 -71 -15 -85c-4 -16 -10 -27 -18 -35c-10 -11 -30 -18 -60 -20c-11 0 -29 -1 -53 -1h-15h-181h-1c-14 0 -24 -2 -32 -7c-6 -2 -9 -6 -10 -10c0 -5 3 -10 9 -14c8 -4 18 -6 31 -6h178c41 0 68 0 81 -2c18 -2 31 -6 38 -13c8 -8 12 -22 12 -42
c0 -4 0 -10 -1 -16c0 -12 -3 -34 -7 -68l-5 -36c-5 -36 -9 -61 -12 -74c-4 -21 -11 -36 -20 -46c-8 -9 -22 -15 -42 -18c-14 -2 -43 -3 -88 -3h-220c-43 0 -71 1 -85 3c-16 2 -28 6 -35 12c-8 8 -12 21 -12 39v6c1 14 4 41 9 81l13 93l12 84l5 37c6 38 10 64 13 76
c5 21 11 36 19 44c9 10 23 16 42 18c14 2 41 3 79 3h9zM212 177c-10 0 -18 -1 -25 -4c-9 -3 -14 -8 -14 -15c0 -5 4 -9 10 -13c6 -2 14 -4 23 -4h151c8 0 14 2 18 4c8 4 11 10 11 16c0 5 -1 9 -5 12s-10 4 -18 4h-151z" />
    <glyph glyph-name="seven" unicode="7" horiz-adv-x="523" 
d="M29 496h142h220h29c23 0 40 0 50 -2c18 -1 31 -5 39 -11c10 -7 14 -21 14 -41c0 -3 0 -7 -1 -11c0 -12 -3 -38 -9 -76l-5 -37l-20 -141l-5 -36c-5 -39 -9 -65 -13 -78c-4 -21 -11 -36 -21 -44c-9 -8 -23 -13 -41 -16c-14 -1 -43 -2 -87 -3l20 141l5 36l20 141
c2 10 2 17 2 20c1 6 1 10 -1 12c-1 3 -4 5 -10 5h-25h-181c-45 0 -74 1 -88 3c-17 3 -29 9 -36 17c-5 8 -8 19 -8 34c0 5 1 10 1 15c1 13 4 37 9 72z" />
    <glyph glyph-name="eight" unicode="8" horiz-adv-x="569" 
d="M157 496h282c35 0 58 0 70 -2c23 -2 39 -7 47 -15c9 -8 13 -24 13 -46v-7c0 -12 -1 -28 -4 -48c-1 -12 -4 -32 -8 -60c-1 -8 -3 -15 -6 -21c-2 -8 -6 -16 -10 -22s-8 -11 -14 -15c-6 -5 -14 -9 -24 -12c6 -1 11 -3 15 -6c5 -4 9 -8 12 -14c4 -6 7 -14 8 -24
c1 -8 1 -17 -1 -27l-5 -37c-4 -32 -8 -54 -10 -66c-4 -22 -10 -38 -17 -48c-6 -9 -16 -16 -29 -20c-10 -3 -27 -5 -49 -6h-246c-53 0 -88 1 -105 3c-22 3 -38 9 -46 18c-6 8 -10 22 -10 40v8c1 13 4 37 8 71l5 37c2 11 4 20 6 28c4 10 8 19 14 25c4 5 9 9 13 11
c6 4 13 7 21 7c-8 3 -15 7 -21 12c-4 5 -8 11 -11 17c-2 6 -3 13 -4 19c0 7 1 14 2 22l5 36c4 25 6 43 7 53c5 30 11 50 19 61c6 9 13 15 22 19c12 4 29 7 51 8v1zM233 355c-11 0 -20 -2 -27 -6c-6 -3 -9 -7 -11 -12c0 -5 2 -10 8 -14s15 -5 26 -5h150c10 0 18 2 24 4
c9 4 13 10 13 16s-3 10 -9 13s-13 4 -23 4h-151zM212 177c-12 0 -21 -2 -29 -6c-6 -4 -10 -8 -10 -14c0 -4 4 -8 10 -12c6 -2 13 -4 23 -4h149c8 0 15 1 21 3c10 4 15 10 15 16c0 7 -4 12 -13 14c-5 2 -11 3 -18 3h-148z" />
    <glyph glyph-name="nine" unicode="9" horiz-adv-x="583" 
d="M382 0h-220h-142c6 36 10 61 13 73c6 25 14 42 24 51c10 8 27 13 49 15c12 2 32 2 60 2h16h181c10 0 19 1 26 3c9 4 14 8 16 12c4 8 -1 14 -15 18c-6 3 -14 4 -24 4h-179c-40 0 -66 1 -79 2c-21 2 -35 8 -42 16c-6 8 -9 21 -9 38c0 14 3 42 8 84l5 37c5 37 9 61 12 73
c4 22 10 37 18 46c9 10 22 16 39 18c14 3 45 4 93 4h220c44 0 73 -1 86 -3c16 -2 28 -6 34 -13c8 -8 11 -21 11 -39c0 -6 0 -15 -1 -26c-1 -10 -4 -30 -8 -60l-25 -177l-5 -37c-6 -42 -10 -70 -14 -84c-5 -20 -13 -34 -24 -42c-10 -7 -28 -12 -53 -14c-12 0 -32 -1 -62 -1
h-9zM391 318c9 0 17 2 23 4c11 4 16 10 16 16c0 5 -3 9 -9 12c-6 4 -14 5 -25 5h-151c-8 0 -15 -2 -21 -6c-5 -4 -8 -9 -8 -15s3 -9 8 -12c4 -2 10 -4 16 -4h151z" />
    <glyph glyph-name="A" unicode="A" 
d="M465 496c29 0 50 -1 62 -3c14 -2 24 -5 30 -10c10 -7 15 -21 15 -42c0 -4 0 -8 -1 -14c0 -12 -3 -36 -8 -72l-16 -112l-14 -102c-6 -48 -12 -78 -17 -92c-4 -14 -11 -25 -20 -32c-8 -6 -19 -10 -33 -13c-14 -2 -46 -4 -96 -4h-217c-48 0 -79 2 -93 4c-14 3 -24 8 -30 15
c-6 8 -8 19 -8 35v6c1 14 4 41 9 81l6 37c5 36 9 60 11 72c5 24 12 40 20 48c9 9 22 15 39 17c14 2 40 3 77 3h14h195c8 0 14 1 16 1c4 1 7 3 9 5s3 5 3 9c1 4 2 11 3 22h-25h-195c-36 0 -61 1 -73 2c-18 3 -30 9 -37 18c-6 9 -10 24 -12 46c0 12 -1 32 -1 58v17h362h16h9z
M199 178c-8 0 -13 0 -15 -1c-3 0 -5 -2 -7 -4s-3 -7 -4 -15c0 -3 -1 -9 -3 -17h24h172c8 0 14 1 16 1c4 1 6 2 7 4c2 2 3 6 4 10s2 11 3 22h-25h-172z" />
    <glyph glyph-name="B" unicode="B" 
d="M85 700h1c30 0 51 0 64 -1c15 0 27 -2 37 -4c15 -3 26 -8 32 -16c10 -10 15 -28 15 -53c0 -13 -1 -30 -3 -52c-2 -14 -5 -41 -11 -79h220h15c31 0 53 0 65 -1c22 -2 37 -8 43 -17c6 -7 9 -19 9 -36c0 -4 0 -8 -1 -13c0 -12 -3 -37 -8 -73l-30 -214
c-6 -47 -12 -77 -17 -91c-4 -14 -10 -25 -18 -32c-9 -8 -24 -14 -46 -16c-13 -1 -40 -2 -81 -2h-220c-47 0 -78 2 -92 4c-18 4 -30 11 -36 23c-2 7 -4 16 -4 27c0 14 3 43 9 87l30 214l20 140l20 141c1 6 1 10 1 12c1 6 0 11 -3 16c-2 4 -5 9 -10 15c-3 4 -9 11 -17 21h16z
M200 355l-24 -177c-2 -12 -3 -19 -3 -23c0 -3 1 -6 2 -8s4 -4 8 -5c4 0 11 -1 23 -1h185l25 178c2 12 2 19 2 22c0 4 0 6 -2 8c-1 3 -4 5 -10 5c-3 1 -9 1 -19 1h-187z" />
    <glyph glyph-name="C" unicode="C" horiz-adv-x="568" 
d="M221 495h221h142c-6 -40 -10 -67 -14 -81c-4 -19 -11 -33 -20 -41c-10 -9 -28 -15 -52 -17c-13 0 -38 -1 -76 -2h-179c-14 1 -24 1 -28 -1c-4 0 -7 -1 -9 -3s-4 -6 -6 -12c0 -4 -1 -10 -3 -20l-25 -178h220h142c-6 -42 -10 -70 -14 -84c-4 -18 -11 -32 -21 -40
c-9 -7 -24 -12 -44 -14c-13 -1 -40 -2 -81 -2h-2h-220h-2c-48 0 -79 2 -93 4c-14 3 -24 9 -30 17c-4 8 -7 19 -7 33v7c1 14 4 40 10 79c4 24 9 59 15 107c7 48 12 83 15 107c6 40 10 66 12 79c5 21 12 36 21 44s22 13 40 15c14 2 39 3 75 3h13z" />
    <glyph glyph-name="D" unicode="D" horiz-adv-x="576" 
d="M461 614c2 12 5 23 9 32c6 13 14 23 24 30c8 6 18 11 29 14c12 4 25 6 40 8c11 1 23 2 36 2h38h10c-11 -10 -19 -17 -24 -21c-5 -5 -9 -9 -12 -13s-5 -8 -7 -13c0 -3 -1 -9 -3 -17l-18 -141l-44 -317l-5 -37c-4 -35 -8 -59 -11 -71c-4 -21 -9 -36 -17 -46
c-9 -12 -26 -19 -52 -22c-13 -1 -40 -2 -80 -2h-2h-220h-3c-33 0 -56 1 -68 1c-30 2 -49 10 -56 24c-3 7 -5 17 -5 29c0 6 1 12 1 19c1 12 4 35 9 68c4 27 9 65 16 114c8 50 12 83 14 100c5 38 9 64 12 76c5 22 12 38 21 46c8 8 21 13 39 15c14 2 40 3 76 3h13h220zM243 355
c-4 0 -11 0 -21 -1c-4 0 -7 0 -9 -1c-3 0 -5 -2 -7 -4s-4 -6 -6 -12c0 -3 -1 -9 -3 -19l-25 -177h179h22c7 1 12 3 14 6c2 2 4 6 5 10c2 4 3 11 5 21l24 177h-178z" />
    <glyph glyph-name="E" unicode="E" horiz-adv-x="557" 
d="M224 495h218c36 0 60 0 72 -1c22 -1 37 -5 45 -12c10 -7 14 -21 14 -41c0 -6 0 -13 -1 -21c-1 -12 -4 -33 -8 -65l-6 -37c-5 -40 -9 -66 -13 -80c-4 -19 -11 -33 -19 -41c-9 -8 -23 -14 -43 -17c-13 -2 -37 -3 -72 -3h-14h-196h-15s-6 -2 -8 -4s-3 -6 -4 -12
c0 -3 -1 -10 -3 -20h25h195c39 0 64 -1 75 -3c16 -2 27 -7 33 -15c8 -8 12 -23 13 -44c2 -12 2 -33 2 -62v-17h-363h-15c-40 0 -66 2 -80 4c-14 4 -24 10 -30 19c-4 8 -6 18 -6 31v8c1 13 4 39 9 79l30 214l12 72c5 24 12 40 21 49c10 9 24 15 42 17c14 2 44 2 90 2z
M226 355c-9 0 -15 0 -17 -1s-4 -3 -6 -5c-1 -2 -2 -4 -4 -9c0 -3 -1 -10 -3 -22h25h172h10c6 1 10 3 12 5s3 5 3 9c1 4 2 11 3 23h-23h-172z" />
    <glyph glyph-name="F" unicode="F" horiz-adv-x="579" 
d="M162 496h221h142c-3 -21 -5 -36 -7 -46c-2 -18 -5 -33 -9 -43c-4 -17 -12 -29 -22 -36c-8 -7 -22 -12 -42 -14c-13 -1 -40 -2 -82 -2h-179c-12 0 -21 0 -25 -1c-4 0 -8 -1 -11 -3c-2 -2 -5 -5 -7 -11c0 -4 -1 -11 -3 -22l-25 -177h220h142c-6 -44 -10 -73 -14 -86
c-4 -18 -11 -30 -21 -38s-26 -13 -49 -15c-12 -1 -38 -2 -76 -2h-2h-220l-9 -63c-5 -40 -9 -68 -13 -82c-5 -20 -12 -34 -22 -42c-7 -6 -18 -11 -33 -14c-10 -2 -24 -3 -43 -3c-9 0 -24 -1 -44 -1h-49c10 6 17 10 21 14c8 6 14 12 18 18s7 12 9 18c2 5 3 10 3 15l33 232
l37 263c5 34 8 58 10 70c6 30 16 50 30 58c8 5 19 8 33 10s39 3 75 3h13z" />
    <glyph glyph-name="G" unicode="G" horiz-adv-x="568" 
d="M18 355c6 40 11 66 13 78c6 21 13 36 21 44c10 9 25 15 47 17c14 2 41 2 81 2h220c35 0 58 0 69 -2c11 0 20 -2 26 -4c9 -2 16 -5 20 -10c8 -6 12 -16 13 -31v-16v-23c0 -10 -2 -29 -5 -55l-18 -125l-12 -89l-20 -140l-9 -65c-4 -35 -8 -59 -11 -73
c-4 -21 -11 -36 -20 -46c-8 -9 -20 -15 -38 -18c-14 -2 -45 -4 -93 -4h-220h-142c9 43 16 71 20 84c7 22 17 37 29 44c9 6 22 9 39 11c13 2 35 2 65 2h9h164c18 0 30 1 36 1c7 2 12 4 15 7c4 4 6 10 8 18c2 6 4 19 6 39h-220h-10c-38 0 -63 1 -77 2c-20 4 -33 11 -39 22
c-4 7 -6 17 -6 30c0 6 1 13 1 20c2 12 4 34 8 66c4 23 9 60 16 111c5 35 10 69 14 103zM196 355c-12 0 -19 0 -23 -1c-4 0 -8 -2 -10 -5c-2 -2 -3 -6 -5 -12c0 -3 -1 -9 -3 -19l-12 -85l-12 -92h182c11 0 18 1 22 1c5 1 9 2 11 4c3 2 4 4 5 8c2 4 3 12 5 23l25 178h-185z
" />
    <glyph glyph-name="H" unicode="H" horiz-adv-x="583" 
d="M78 700h55h48c17 0 30 -2 39 -5c12 -2 20 -7 24 -13c6 -7 9 -18 9 -33c0 -2 0 -5 -1 -9c0 -13 -4 -40 -11 -81l-9 -63h220h17c32 0 54 0 66 -2c19 -2 32 -8 39 -16c6 -7 9 -19 9 -37v-10c0 -12 -3 -38 -9 -76l-30 -214c-4 -35 -8 -59 -10 -71c-4 -18 -9 -32 -15 -42
c-8 -13 -25 -21 -49 -25c-14 -2 -40 -3 -78 -3h-10l20 141l30 214h-220l-30 -214c-6 -40 -10 -67 -14 -81c-4 -19 -11 -33 -20 -41s-23 -14 -43 -16c-14 -2 -39 -3 -76 -3h-9l20 141l37 267l32 229c2 9 3 15 3 17c0 6 0 11 -2 14c-2 4 -6 9 -12 15c-3 4 -10 9 -20 17z" />
    <glyph glyph-name="I" unicode="I" horiz-adv-x="230" 
d="M220 700l-23 -168h-142l3 27c6 38 10 63 13 75c4 20 10 35 17 43c9 10 22 17 40 20c15 2 46 3 92 3zM50 496h142l-50 -356c-5 -38 -9 -63 -13 -76c-4 -21 -11 -36 -20 -45c-10 -9 -26 -15 -48 -17c-13 -1 -38 -2 -74 -2h-47c12 10 19 17 23 21c8 8 13 13 16 17
c4 5 6 10 7 15c2 4 3 10 4 20z" />
    <glyph glyph-name="J" unicode="J" horiz-adv-x="441" 
d="M471 700l-20 -140l-3 -27h-142l3 27c6 39 11 65 13 77c5 21 12 36 20 44s20 13 34 15c15 3 47 4 95 4zM300 496h142l-49 -355c-4 -32 -8 -55 -11 -67c-4 -22 -9 -37 -16 -47c-8 -13 -24 -21 -48 -24c-14 -2 -38 -3 -74 -3h-13h-78h-13c-36 0 -60 1 -74 3
c-21 3 -34 10 -40 21c-4 8 -6 18 -6 30c0 5 1 11 1 17c1 13 4 34 8 62l7 46c11 -10 18 -18 22 -22c5 -4 9 -8 13 -11c4 -2 8 -3 12 -4c4 0 9 -1 16 -1h74h43c12 0 19 1 22 1c5 1 8 3 10 5s4 6 4 10c2 4 3 10 4 20z" />
    <glyph glyph-name="K" unicode="K" horiz-adv-x="576" 
d="M76 700c47 0 77 -1 90 -3c19 -2 31 -9 36 -20c4 -7 6 -17 6 -31c0 -6 0 -12 -1 -20c-1 -12 -4 -34 -8 -67l-9 -63l-20 -141l-5 -37h220l5 38c5 35 9 59 11 71c4 20 10 35 16 44c8 11 21 18 38 21c14 3 46 4 95 4h2l-25 -178c-2 -10 -4 -19 -8 -27c-2 -7 -6 -13 -10 -19
c-4 -5 -8 -9 -14 -13s-13 -7 -22 -10c8 -2 15 -6 20 -11c5 -4 9 -10 11 -17c2 -5 4 -11 4 -19c1 -7 1 -15 -1 -24l-5 -37c-5 -40 -9 -66 -13 -80c-4 -18 -11 -32 -19 -40s-19 -13 -35 -17c-14 -2 -45 -4 -95 -4l20 141l5 37h-220l-5 -37c-4 -33 -8 -56 -11 -68
c-4 -21 -9 -36 -16 -46s-17 -17 -31 -21s-47 -6 -99 -6h-22h-21c16 12 25 20 29 24c6 6 10 11 12 16c2 4 4 8 5 13c0 4 1 10 2 19l10 69l5 37l20 140l5 37l20 141l9 64z" />
    <glyph glyph-name="L" unicode="L" horiz-adv-x="230" 
d="M220 701l-21 -153l-28 -200l-29 -208c-5 -37 -9 -62 -13 -75c-4 -20 -10 -34 -18 -43c-8 -8 -20 -14 -37 -18c-14 -2 -43 -3 -87 -3h-47c15 14 24 22 28 26c7 7 12 13 14 17s4 7 5 11s2 10 3 18l26 186l20 138l22 163c6 42 11 70 14 83c5 18 12 31 20 39s20 13 35 15
c14 3 45 4 93 4z" />
    <glyph glyph-name="M" unicode="M" horiz-adv-x="582" 
d="M30 355c6 40 10 66 12 79c5 21 12 36 21 44c8 8 21 13 38 15c12 2 32 3 60 3c6 0 17 0 31 -1h37h142h41c14 1 24 1 30 1c28 0 48 -1 60 -3c15 -2 25 -7 31 -14c7 -8 10 -21 10 -39c0 -13 -3 -41 -9 -85l-5 -37l-20 -141l-5 -36c-5 -37 -9 -62 -12 -75
c-4 -19 -9 -33 -17 -43c-8 -9 -20 -15 -37 -19c-14 -2 -46 -4 -96 -4l20 141l5 36l20 141l5 37c-14 0 -23 0 -27 -1c-4 0 -8 -2 -11 -5c-2 -2 -3 -6 -5 -13c0 -3 -1 -9 -3 -18l-20 -141l-5 -36c-6 -42 -10 -69 -14 -83c-4 -17 -11 -30 -19 -38c-6 -6 -16 -11 -30 -15
c-14 -3 -47 -5 -99 -5l20 141l5 36l20 141l5 37c-11 0 -18 0 -22 -1c-5 0 -9 -1 -12 -4c-2 -2 -3 -7 -5 -13c0 -3 -1 -9 -3 -19l-20 -141l-5 -36c-6 -45 -12 -74 -16 -88c-4 -18 -12 -30 -22 -37c-9 -7 -23 -12 -42 -14c-13 -1 -38 -2 -76 -2h-23h-23c13 11 21 18 25 22
c8 6 13 12 15 16c3 5 5 9 7 14c1 4 2 10 3 18l10 71l5 36l20 141z" />
    <glyph glyph-name="N" unicode="N" horiz-adv-x="582" 
d="M30 354c5 38 9 63 11 75c4 20 10 35 17 43c8 11 22 18 40 20c13 2 34 3 63 3h31h37h142h41h30c18 0 32 0 42 -1c21 -1 36 -5 44 -11c10 -7 15 -21 15 -43c0 -13 -3 -42 -9 -86l-5 -36l-20 -141l-5 -37c-6 -42 -10 -69 -14 -82c-4 -16 -9 -27 -15 -35
c-8 -9 -20 -15 -37 -19c-14 -2 -46 -4 -96 -4l20 140l5 37l20 141l5 36h-183c-10 1 -18 1 -22 0c-4 0 -8 -1 -10 -3s-5 -6 -7 -12c0 -3 -1 -10 -3 -21l-20 -141l-5 -37c-5 -36 -9 -60 -12 -73c-4 -21 -11 -36 -19 -46c-9 -10 -24 -16 -46 -19c-14 -1 -40 -2 -79 -2h-23h-23
c13 11 21 18 25 22c8 7 13 12 16 16c2 4 4 7 5 11c2 4 3 11 4 21l10 70l5 37l20 141z" />
    <glyph glyph-name="O" unicode="O" 
d="M58 355c4 29 7 49 9 59c6 31 14 51 24 61c9 10 23 16 43 18c14 2 41 2 81 2h5h220h5c49 0 80 -1 94 -5c12 -2 21 -8 26 -16c5 -7 7 -18 7 -33v-10c0 -12 -3 -38 -9 -76l-30 -214c-5 -36 -9 -60 -12 -73c-4 -18 -9 -32 -15 -41c-8 -12 -21 -19 -40 -23
c-14 -2 -43 -4 -88 -4h-7h-220h-8c-43 0 -71 2 -85 4c-16 3 -26 9 -32 17c-4 8 -7 19 -7 33v12c1 13 4 38 9 75c4 27 10 65 17 114c8 50 11 82 13 100zM249 355c-16 0 -27 0 -32 -1c-6 -1 -11 -3 -14 -6c-2 -2 -4 -8 -6 -17c0 -2 -1 -7 -2 -13l-25 -177h189h7h12
c4 1 7 2 9 4s4 5 4 9c2 4 3 11 5 23l25 178h-172z" />
    <glyph glyph-name="P" unicode="P" horiz-adv-x="576" 
d="M66 -119c-2 -12 -5 -22 -9 -31c-6 -12 -14 -23 -25 -31c-7 -5 -16 -10 -28 -14c-11 -4 -24 -5 -40 -7c-10 -1 -22 -2 -36 -2h-39h-9c12 10 20 16 24 20c6 6 10 10 12 14c4 4 6 9 7 13c1 3 2 8 3 16l18 141l44 318l5 37c5 36 8 59 10 71c5 22 11 37 18 46
c10 12 27 19 51 21c14 2 41 3 80 3h3h220h2c34 0 57 0 69 -2c31 -2 50 -9 56 -23c4 -7 5 -17 5 -29c0 -5 0 -11 -1 -19c0 -12 -3 -34 -9 -68c-3 -24 -13 -95 -30 -214c-5 -38 -9 -63 -12 -77c-4 -21 -11 -36 -21 -45c-8 -8 -21 -13 -39 -16c-14 -2 -39 -3 -76 -3h-14h-219z
M283 141h1h21c4 1 7 1 9 1c3 2 5 3 7 4c3 3 5 7 6 12c1 4 2 10 3 19l25 178h-179c-11 0 -18 0 -22 -1c-6 0 -11 -2 -14 -5c-2 -2 -3 -5 -5 -11c-1 -3 -3 -10 -5 -20l-25 -177h178z" />
    <glyph glyph-name="Q" unicode="Q" 
d="M506 -205h-1c-29 0 -50 1 -64 2s-27 2 -37 4c-14 4 -25 9 -32 16c-10 10 -15 28 -15 53c0 13 1 30 3 51c2 16 6 42 11 79h-220h-14c-31 0 -53 1 -66 2c-22 2 -36 8 -43 17c-6 8 -9 19 -9 35v13c2 13 5 38 9 74l30 214c7 47 13 77 17 91s10 25 17 31c10 9 26 14 47 16
c14 2 41 2 81 2h220c48 0 78 -1 92 -3c19 -3 31 -11 36 -23c3 -6 4 -16 4 -28c0 -13 -3 -42 -9 -86l-30 -214l-20 -141l-20 -141c0 -5 -1 -9 -1 -11c0 -6 1 -11 3 -16c2 -4 6 -9 10 -15c4 -4 9 -11 17 -22h-16zM390 141l25 177c2 12 3 19 3 22c0 4 0 6 -2 8c-1 3 -4 5 -8 6
c-3 1 -11 1 -23 1h-185l-25 -179c-1 -11 -2 -18 -2 -22c0 -3 1 -6 1 -8c2 -2 6 -4 11 -5h19h186z" />
    <glyph glyph-name="R" unicode="R" horiz-adv-x="574" 
d="M26 355c6 38 10 64 12 76c5 22 12 38 21 46c8 8 19 13 34 15c14 3 38 4 73 4h22h362c-6 -42 -10 -69 -14 -83c-5 -19 -12 -33 -22 -41c-9 -8 -24 -12 -45 -15c-13 -1 -40 -2 -82 -2h-170c-15 0 -25 0 -30 -1c-6 0 -11 -2 -14 -4c-2 -2 -4 -6 -6 -12c-1 -3 -3 -11 -5 -24
l-24 -173c-5 -40 -9 -67 -13 -81c-4 -16 -9 -28 -15 -36c-8 -9 -19 -15 -35 -19c-10 -2 -26 -3 -47 -4c-9 0 -24 -1 -46 -1h-42c14 14 22 23 26 28c8 8 13 14 15 20c2 4 3 9 4 14c1 4 2 11 3 22z" />
    <glyph glyph-name="S" unicode="S" horiz-adv-x="568" 
d="M58 355c6 43 11 71 15 85c5 20 13 33 23 41c9 7 22 11 40 13c14 2 39 2 75 2h9h220h142c-6 -46 -12 -77 -17 -91c-6 -19 -16 -32 -30 -39c-8 -4 -18 -6 -32 -8c-12 -2 -35 -3 -67 -3h-15h-181c-14 0 -24 0 -28 -1c-4 0 -8 -2 -10 -5c-2 -2 -3 -5 -4 -9
c0 -3 -1 -10 -3 -21h220c40 0 66 0 78 -2c22 -2 36 -8 43 -16s10 -21 10 -39v-6c0 -12 -3 -38 -8 -78l-5 -37c-6 -44 -12 -73 -16 -87c-4 -13 -8 -23 -14 -31c-8 -8 -19 -14 -34 -18c-14 -2 -47 -4 -98 -4h-220c-52 0 -84 2 -98 4c-12 4 -21 9 -27 16c-5 8 -7 19 -7 34
c0 14 3 42 9 86h142h187c12 0 20 1 23 1c4 1 7 3 9 5c2 3 4 7 4 12c1 4 2 10 3 19h-220h-25c-27 0 -47 1 -59 2c-20 2 -33 7 -41 14c-6 7 -10 18 -10 34v12c2 13 6 39 12 79z" />
    <glyph glyph-name="T" unicode="T" horiz-adv-x="559" 
d="M230 701h45h47c16 0 28 -1 36 -3c16 -2 28 -7 34 -14c6 -8 9 -20 9 -38c0 -13 -2 -41 -8 -85l-9 -65h78h142c-6 -44 -11 -72 -15 -86c-5 -20 -14 -33 -26 -41c-8 -5 -19 -9 -35 -11c-14 -1 -42 -2 -86 -2h-78l-5 -37l-20 -141l-5 -36h78h142c-6 -42 -10 -70 -14 -84
c-4 -17 -11 -30 -19 -38s-21 -13 -39 -16c-14 -2 -42 -3 -84 -3h-5h-79h-6c-43 0 -72 1 -86 3c-18 3 -30 9 -36 18c-4 7 -6 17 -6 29v16c2 13 6 38 12 75l5 36l20 141l5 37h-142c6 39 10 65 12 77c6 25 15 41 26 49c10 6 23 10 40 12c13 2 34 2 63 2h21l20 144
c1 10 1 16 1 19c0 5 0 9 -2 12c-2 4 -5 9 -11 13c-3 4 -10 9 -20 17z" />
    <glyph glyph-name="U" unicode="U" 
d="M41 495h44h43c14 0 26 0 34 -2c18 -1 31 -5 38 -11c9 -6 13 -18 13 -36c0 -8 -1 -19 -3 -34c0 -7 -3 -26 -8 -57l-25 -179c-1 -8 -2 -14 -3 -18c0 -4 1 -7 1 -10c1 -3 3 -5 7 -6s12 -1 25 -1h185l30 214l20 140c43 0 71 0 83 -2c22 -2 36 -9 42 -20c4 -7 6 -18 6 -33
c0 -5 0 -11 -1 -18c0 -12 -3 -34 -8 -67l-30 -214c-5 -40 -9 -66 -13 -80c-4 -18 -9 -31 -17 -39c-8 -9 -21 -15 -39 -19c-13 -2 -37 -3 -71 -3h-22h-220h-22c-36 0 -60 2 -74 4c-16 4 -26 11 -31 21c-3 7 -5 16 -5 28c0 6 1 12 1 18c1 13 4 36 9 70c4 26 9 64 16 112
c8 49 12 83 14 102l11 80c1 7 2 12 2 14c1 7 0 12 -2 16c-1 4 -4 8 -9 12c-3 4 -10 10 -21 18z" />
    <glyph glyph-name="V" unicode="V" horiz-adv-x="549" 
d="M20 496h42c24 0 41 0 52 -1c12 0 23 -1 36 -2c14 0 22 -4 26 -10c5 -6 10 -10 16 -14s10 -12 12 -26c3 -14 4 -25 6 -35s5 -27 8 -52l30 -215h42h44h20c5 1 8 2 10 4s4 5 5 9s2 11 4 23l26 190l19 129h20c29 0 49 0 61 -2c19 -2 32 -6 39 -14c8 -7 11 -20 11 -38v-18
c-1 -12 -4 -36 -9 -70l-14 -98l-16 -115c-5 -38 -9 -64 -12 -77c-5 -21 -12 -36 -21 -45c-10 -9 -27 -15 -52 -17c-12 -1 -33 -2 -63 -2h-14h-80c-40 0 -66 1 -80 2c-24 3 -41 10 -51 20c-10 11 -17 31 -23 62c-1 11 -4 30 -8 56l-21 148l-19 135c-2 19 -6 31 -10 37
s-15 18 -36 36z" />
    <glyph glyph-name="W" unicode="W" 
d="M38 496h46h39c19 0 33 0 43 -2c14 -2 25 -6 31 -12c9 -7 13 -20 13 -39c0 -14 -3 -43 -10 -87l-25 -179c0 -7 -1 -12 -2 -15c0 -5 1 -9 1 -12c1 -4 4 -6 8 -8c4 0 13 -1 27 -1l22 162l28 193c43 0 71 0 84 -2c19 -2 32 -8 38 -18c6 -7 8 -19 8 -37c0 -6 0 -13 -1 -21
c-1 -11 -3 -31 -7 -61l-25 -178c-1 -10 -2 -16 -2 -20c0 -5 0 -9 1 -12c2 -2 5 -3 9 -5c4 0 13 -1 26 -1l22 155l28 200c41 0 68 0 81 -2c18 -1 31 -5 38 -12c9 -7 13 -20 13 -40c0 -13 -3 -42 -9 -86l-30 -215c-5 -37 -9 -62 -12 -75c-4 -21 -11 -36 -20 -46
c-10 -10 -28 -16 -55 -18c-12 -1 -37 -2 -75 -2h-40h-142h-39c-44 0 -73 1 -87 3c-19 4 -32 10 -38 20c-4 8 -6 18 -6 32c0 5 1 10 1 15c1 12 4 36 8 71l22 155l18 127c1 8 1 13 1 15c0 5 0 9 -2 13c-1 4 -4 10 -9 16c-3 6 -10 15 -20 29z" />
    <glyph glyph-name="X" unicode="X" horiz-adv-x="576" 
d="M29 355c4 31 7 52 9 64c4 19 8 33 13 43c7 14 19 24 35 28c10 4 25 6 45 6h60l-20 -141l-5 -37h220l5 38c4 32 8 54 10 66c3 16 6 28 10 36c5 11 11 19 19 24c8 6 20 9 34 11s43 3 87 3h2l-25 -178c-2 -11 -5 -21 -9 -29c-2 -6 -5 -11 -9 -17c-4 -4 -8 -9 -14 -13
s-13 -7 -22 -10c8 -2 15 -6 19 -11c5 -4 9 -8 11 -14c3 -5 5 -11 5 -19c1 -8 1 -17 -1 -27l-5 -37c-5 -37 -9 -62 -12 -75c-4 -20 -10 -34 -18 -44c-8 -9 -23 -15 -43 -19c-14 -2 -43 -3 -89 -3l20 141l5 37h-220l-5 -37c-5 -38 -9 -63 -13 -77c-4 -20 -11 -34 -19 -43
c-6 -6 -15 -11 -27 -15c-11 -2 -29 -4 -53 -5c-9 0 -23 -1 -43 -1h-23h-22c22 21 35 35 39 42c5 8 8 21 11 43l8 56l5 37c2 11 4 21 6 29c3 8 6 14 10 19c4 6 9 10 13 13c8 6 16 9 25 10c-8 3 -14 7 -20 12c-4 4 -7 8 -9 12c-3 6 -5 13 -6 20c-1 8 -1 17 1 25z" />
    <glyph glyph-name="Y" unicode="Y" horiz-adv-x="571" 
d="M-2 497h46h40c25 0 42 -1 52 -3c13 -2 22 -6 27 -12c6 -6 8 -17 8 -31v-12c0 -8 -4 -36 -10 -83l-30 -215h182c14 0 23 1 26 2c4 1 6 2 8 4c2 3 4 7 5 12c1 4 2 10 4 18l25 179l20 141c36 0 59 0 71 -1c21 -1 36 -5 44 -11c10 -6 15 -17 15 -33c1 -2 1 -6 1 -10
c0 -13 -3 -42 -9 -86l-30 -215l-20 -141l-9 -64c-4 -36 -8 -60 -11 -73c-4 -20 -11 -35 -19 -45c-6 -8 -16 -13 -30 -17s-48 -6 -102 -6h-220h-142c9 42 15 69 19 82c8 24 18 39 30 46c10 6 23 10 40 11c12 2 34 2 64 2h9h164c18 0 29 1 34 1c8 2 14 4 17 8c4 4 7 10 8 18
c2 6 4 19 6 37h-220h-10c-38 0 -64 1 -78 3c-20 4 -32 11 -38 22c-4 7 -6 17 -6 30c0 9 1 20 3 34c1 10 3 28 6 52l30 215l10 68c2 10 2 17 2 21c0 6 0 10 -2 14c-2 5 -5 11 -11 17c-3 4 -9 11 -19 21z" />
    <glyph glyph-name="Z" unicode="Z" 
d="M79 495h142h220h22c30 0 52 0 64 -2c16 -2 27 -6 33 -12c8 -8 12 -21 12 -41v-7c0 -13 -3 -39 -8 -78l-5 -37c-6 -38 -10 -64 -13 -78c-4 -18 -10 -32 -18 -41c-8 -10 -23 -16 -43 -19c-13 -2 -38 -3 -75 -3h-13h-221c-1 -9 -2 -15 -2 -19c0 -6 0 -10 1 -13
c2 -2 4 -3 8 -4c4 0 10 0 20 -1h189h142c-4 -32 -8 -53 -10 -65c-4 -21 -10 -36 -16 -46c-7 -12 -19 -20 -35 -24c-14 -3 -48 -5 -101 -5h-220c-44 0 -73 1 -87 3c-20 3 -33 9 -39 19c-4 8 -6 18 -6 32c0 5 1 10 1 14c1 13 4 37 8 72l5 37c5 35 9 58 11 70c5 26 12 43 22 52
c8 7 18 12 31 14c14 4 42 5 82 5h16h220c2 8 3 13 3 16c1 8 0 14 -3 16c-2 2 -5 4 -10 4c-3 1 -10 1 -22 1h-183c-46 0 -76 1 -90 3c-19 3 -32 10 -38 20c-3 7 -5 16 -5 28v8c1 14 5 41 11 81z" />
    <glyph glyph-name="a" unicode="a" 
d="M465 496c29 0 50 -1 62 -3c14 -2 24 -5 30 -10c10 -7 15 -21 15 -42c0 -4 0 -8 -1 -14c0 -12 -3 -36 -8 -72l-16 -112l-14 -102c-6 -48 -12 -78 -17 -92c-4 -14 -11 -25 -20 -32c-8 -6 -19 -10 -33 -13c-14 -2 -46 -4 -96 -4h-217c-48 0 -79 2 -93 4c-14 3 -24 8 -30 15
c-6 8 -8 19 -8 35v6c1 14 4 41 9 81l6 37c5 36 9 60 11 72c5 24 12 40 20 48c9 9 22 15 39 17c14 2 40 3 77 3h14h195c8 0 14 1 16 1c4 1 7 3 9 5s3 5 3 9c1 4 2 11 3 22h-25h-195c-36 0 -61 1 -73 2c-18 3 -30 9 -37 18c-6 9 -10 24 -12 46c0 12 -1 32 -1 58v17h362h16h9z
M199 178c-8 0 -13 0 -15 -1c-3 0 -5 -2 -7 -4s-3 -7 -4 -15c0 -3 -1 -9 -3 -17h24h172c8 0 14 1 16 1c4 1 6 2 7 4c2 2 3 6 4 10s2 11 3 22h-25h-172z" />
    <glyph glyph-name="b" unicode="b" 
d="M107 700c55 0 89 -3 102 -9c14 -6 22 -17 25 -34c1 -6 1 -14 1 -24v-21c-1 -19 -6 -58 -15 -116h220h14c42 0 69 -1 82 -5c16 -3 27 -10 32 -22c3 -6 4 -16 4 -28v-7c0 -13 -3 -39 -9 -79l-30 -214c-6 -40 -10 -67 -14 -81c-4 -19 -11 -33 -20 -41c-8 -8 -21 -13 -40 -16
c-14 -2 -43 -3 -88 -3h-220c-48 0 -80 2 -94 4c-14 3 -25 9 -31 17c-4 8 -7 19 -7 33c0 7 1 15 1 23c2 12 4 33 8 64l30 214l20 141zM200 355l-24 -177c-2 -12 -3 -19 -3 -23s1 -7 2 -9c2 -2 5 -3 9 -4c4 0 11 -1 22 -1h185l25 178c2 12 2 19 2 22c0 4 0 6 -1 7
c-1 4 -4 6 -8 6c-3 1 -9 1 -19 1h-3h-187z" />
    <glyph glyph-name="c" unicode="c" horiz-adv-x="568" 
d="M220 495h221h142c-6 -40 -10 -67 -14 -81c-4 -19 -11 -33 -20 -41c-10 -9 -28 -15 -52 -17c-13 0 -38 -1 -76 -1h-179c-14 0 -24 0 -28 -2c-4 0 -7 -1 -9 -3s-4 -6 -6 -12c0 -3 -1 -10 -3 -20l-25 -177h220h142c-6 -43 -10 -71 -14 -85c-4 -18 -11 -32 -21 -40
c-9 -7 -24 -12 -44 -14c-13 -1 -40 -2 -81 -2h-2h-220h-2c-48 0 -79 2 -93 4c-14 4 -24 10 -30 18c-4 7 -7 18 -7 32v7c1 14 4 40 10 80c4 28 9 69 17 122c8 54 12 84 13 92c6 40 10 66 12 78c5 21 12 36 21 44s22 14 40 16c14 2 39 2 75 2h13z" />
    <glyph glyph-name="d" unicode="d" horiz-adv-x="581" 
d="M450 559c6 43 11 71 15 85c5 18 12 31 20 38c9 8 23 14 42 16c14 2 42 2 85 2l-73 -522l-5 -37c-5 -42 -9 -70 -13 -83c-5 -20 -13 -35 -24 -43c-8 -5 -19 -9 -34 -12c-14 -2 -44 -3 -89 -3h-2h-220h-2c-46 0 -76 2 -90 4c-14 3 -24 8 -30 14c-6 8 -10 20 -10 36
c0 6 1 14 1 22c2 12 5 33 9 65c3 24 8 59 14 107c7 48 12 83 16 107c6 42 10 69 13 82c5 18 11 31 19 39s21 14 37 16c14 3 41 4 79 4h13h220zM236 355c-10 0 -17 0 -21 -1c-4 0 -8 -2 -10 -5c-2 -2 -3 -5 -5 -11c0 -3 -1 -10 -3 -20l-25 -177h179c14 0 22 1 26 1
c4 1 7 2 9 4c3 2 5 6 6 12c2 4 3 10 5 20l24 177h-178h-4h-3z" />
    <glyph glyph-name="e" unicode="e" 
d="M223 496h218c36 0 60 0 72 -1c22 -2 37 -6 45 -12c10 -7 14 -21 14 -41c0 -6 0 -13 -1 -22c-1 -11 -4 -32 -8 -64l-6 -38c-5 -40 -9 -66 -13 -79c-4 -19 -11 -33 -19 -42c-9 -8 -23 -14 -43 -16c-13 -2 -37 -3 -72 -3h-14h-196c-7 0 -12 0 -15 -1c-3 0 -6 -1 -8 -3
s-3 -6 -4 -12c0 -3 -1 -10 -3 -21h25h195c39 0 64 -1 75 -3c16 -2 27 -7 33 -15c8 -8 12 -22 13 -44c2 -12 2 -32 2 -62v-16h-363h-15c-40 0 -66 2 -80 4c-14 4 -24 10 -30 19c-4 7 -6 17 -6 31v7c1 14 4 40 9 80l30 214c6 36 10 59 12 71c5 24 12 41 21 49
c10 9 24 15 42 17c14 2 44 3 90 3zM225 355c-9 0 -15 0 -17 -1c-2 0 -4 -2 -6 -4c-1 -2 -2 -5 -4 -9c0 -3 -1 -10 -3 -22h25h172h10c6 1 10 3 12 5s3 4 3 8c1 4 2 12 3 23h-23h-172z" />
    <glyph glyph-name="f" unicode="f" 
d="M190 496h221h142c-6 -45 -12 -74 -16 -88c-4 -13 -9 -23 -15 -30c-8 -9 -20 -15 -38 -19c-14 -2 -45 -3 -93 -3h-179c-11 0 -19 0 -23 -1c-4 0 -8 0 -11 -2c-4 -2 -6 -5 -8 -11c-1 -4 -2 -11 -4 -23l-25 -177h220h142c-5 -39 -9 -65 -12 -78c-4 -20 -11 -35 -20 -44
c-8 -8 -22 -13 -40 -16c-14 -2 -43 -3 -88 -3h-2h-220l-9 -63c-5 -38 -9 -63 -12 -77c-4 -16 -8 -28 -14 -37c-8 -12 -20 -19 -38 -23c-14 -3 -47 -5 -98 -5l38 273l41 287c6 42 10 70 13 84c6 21 15 35 26 42c9 7 22 11 40 12c14 2 37 2 69 2h13z" />
    <glyph glyph-name="g" unicode="g" horiz-adv-x="568" 
d="M18 354c6 40 11 66 13 78c6 21 13 36 21 44c10 9 25 15 47 17c14 2 41 2 81 2h220c35 0 58 0 69 -2c11 0 20 -2 26 -4c9 -2 16 -5 20 -10c8 -6 12 -16 13 -31v-16v-24s-2 -28 -5 -54l-18 -125l-12 -89l-20 -140l-9 -65c-4 -35 -8 -59 -11 -73c-4 -21 -11 -36 -20 -46
c-8 -9 -20 -15 -38 -18c-14 -2 -45 -4 -93 -4h-220h-142c9 43 16 71 20 84c7 22 17 37 29 44c9 6 22 9 39 11c13 2 35 2 65 2h9h164c18 0 30 1 36 1c7 2 12 4 15 7c4 4 6 10 8 18c2 6 4 19 6 39h-220h-10c-38 0 -63 1 -77 2c-20 4 -33 11 -39 22c-4 7 -6 17 -6 30
c0 6 1 13 1 20c2 12 4 34 8 66c2 13 5 32 8 56c4 25 6 43 8 55c10 68 14 102 14 103zM196 354c-12 0 -19 0 -23 -1c-4 0 -8 -2 -10 -5c-2 -2 -3 -6 -5 -12c0 -3 -1 -9 -3 -19l-12 -85l-12 -92h182c11 0 18 1 22 1c5 1 9 2 11 4c3 2 4 4 5 8c2 4 3 12 5 23l25 178h-185z" />
    <glyph glyph-name="h" unicode="h" horiz-adv-x="583" 
d="M118 701c47 0 77 -1 91 -3c19 -3 31 -9 37 -19c5 -6 7 -16 7 -29c0 -4 0 -8 -1 -12c0 -13 -4 -39 -11 -78l-9 -64h220h17c35 0 59 -1 72 -3c16 -2 27 -7 33 -15c7 -7 9 -19 9 -37c0 -13 -3 -42 -9 -86l-30 -214c-4 -38 -8 -63 -11 -76c-4 -18 -9 -31 -16 -40
c-8 -10 -22 -17 -42 -21c-14 -2 -42 -3 -83 -3h-10l20 140l30 214h-220l-30 -214c-6 -42 -11 -70 -15 -84c-5 -20 -13 -34 -24 -42c-8 -6 -21 -10 -38 -12c-13 -1 -38 -2 -76 -2h-9l20 140l43 306z" />
    <glyph glyph-name="i" unicode="i" horiz-adv-x="230" 
d="M260 700l-23 -167h-142l3 27c6 38 10 64 13 76c5 22 12 37 20 45s21 14 37 16c14 2 45 3 92 3zM90 496h142l-29 -202l-21 -154c-5 -34 -9 -58 -12 -71c-3 -18 -8 -31 -14 -40c-8 -12 -21 -20 -40 -24c-14 -3 -46 -5 -96 -5l36 254z" />
    <glyph glyph-name="j" unicode="j" horiz-adv-x="440" 
d="M469 700l-19 -141l-4 -26h-142l4 26c6 42 10 70 14 83c5 20 12 34 22 42c9 7 21 11 37 13c14 2 44 3 88 3zM299 496h142l-50 -355c-5 -36 -9 -61 -12 -73c-4 -18 -9 -32 -15 -42c-8 -12 -23 -19 -44 -23c-14 -2 -39 -3 -77 -3h-14h-78h-13c-41 0 -68 2 -82 4
c-14 3 -24 9 -30 17c-4 8 -7 19 -7 33v8c1 13 4 39 9 79h143h44h21c5 1 8 3 10 5s4 5 4 9c2 4 3 11 4 22z" />
    <glyph glyph-name="k" unicode="k" horiz-adv-x="578" 
d="M118 701c47 0 77 -1 90 -4c18 -2 29 -8 34 -17c6 -7 8 -18 8 -34c0 -7 0 -16 -2 -28c-1 -10 -3 -30 -7 -58l-9 -64l-20 -141l-5 -36h220l5 37c6 41 10 68 13 81c6 22 14 36 24 44c10 7 23 11 41 13c14 2 42 3 84 3l-25 -178c-1 -8 -3 -16 -6 -23c-2 -8 -6 -15 -11 -21
c-4 -6 -8 -11 -14 -15s-14 -8 -23 -11c8 -2 14 -5 18 -9c6 -4 10 -10 13 -18c3 -7 4 -15 4 -25c0 -6 0 -12 -1 -19l-5 -37c-4 -33 -8 -56 -11 -68c-3 -19 -8 -33 -14 -43c-7 -12 -19 -20 -36 -24c-14 -3 -48 -5 -101 -5l20 140l5 37h-220l-5 -37c-5 -36 -9 -60 -12 -73
c-4 -20 -9 -34 -17 -44c-9 -10 -24 -17 -46 -21c-14 -1 -43 -2 -87 -2l20 140l5 37l20 141l5 36l20 141l9 64z" />
    <glyph glyph-name="l" unicode="l" horiz-adv-x="230" 
d="M260 700l-43 -305l-35 -255c-5 -37 -9 -62 -13 -76c-4 -19 -10 -33 -18 -42c-10 -10 -27 -17 -51 -20c-13 -1 -40 -2 -80 -2l31 219l47 341c7 44 12 72 15 85c6 21 15 35 27 42c9 6 22 9 38 11c14 2 42 2 82 2z" />
    <glyph glyph-name="m" unicode="m" horiz-adv-x="582" 
d="M70 356c6 44 10 73 14 87c6 19 13 32 23 39s24 11 42 13c12 1 29 1 52 1h31h37h142h41h30c26 0 44 0 55 -2c20 -2 33 -9 39 -19c5 -7 7 -18 7 -34c0 -4 0 -8 -1 -13c0 -12 -3 -36 -8 -72l-5 -37l-20 -141l-5 -37c-4 -34 -8 -57 -11 -69c-4 -22 -10 -37 -18 -47
c-8 -11 -23 -18 -45 -21c-14 -2 -43 -3 -88 -3l20 140l5 37l20 141l5 37c-14 0 -23 0 -28 -1c-4 0 -7 -2 -10 -5c-2 -2 -3 -6 -5 -12c0 -3 -1 -9 -3 -19l-20 -141l-5 -37c-5 -39 -9 -65 -13 -79c-4 -18 -10 -31 -18 -39s-20 -14 -36 -18c-14 -2 -45 -4 -95 -4l20 140l5 37
l20 141l5 37c-11 0 -18 0 -22 -1c-4 0 -8 -1 -10 -3s-5 -5 -7 -11c0 -3 -1 -10 -3 -22l-20 -141l-5 -37c-6 -42 -11 -70 -15 -84c-5 -20 -13 -33 -24 -41c-8 -6 -22 -11 -40 -13c-13 -1 -41 -2 -83 -2l20 140l5 37l20 141z" />
    <glyph glyph-name="n" unicode="n" horiz-adv-x="582" 
d="M70 354c6 46 11 75 14 88c6 19 14 32 24 39c8 6 20 10 36 12c12 2 31 2 57 2h31h37h142h41h30c27 0 46 0 58 -2c13 -2 23 -5 29 -11c8 -6 13 -18 14 -35v-7c0 -13 -3 -42 -9 -86l-5 -36l-20 -141l-5 -37c-5 -40 -9 -67 -13 -80c-4 -16 -9 -29 -17 -37
c-8 -9 -20 -15 -37 -19c-14 -2 -46 -4 -95 -4l20 140l5 37l20 141l5 36h-183c-11 1 -18 1 -22 0c-4 0 -7 -1 -10 -3c-2 -2 -5 -6 -7 -12c0 -3 -1 -10 -3 -21l-20 -141l-5 -37c-6 -44 -12 -73 -16 -87c-4 -17 -12 -29 -22 -37c-8 -6 -22 -11 -40 -14c-13 -1 -41 -2 -84 -2
l20 140l5 37l20 141z" />
    <glyph glyph-name="o" unicode="o" 
d="M58 356c4 29 7 49 9 59c6 31 14 51 24 61c9 10 23 16 43 18c14 2 41 2 81 2h5h220h5c49 0 80 -1 94 -5c12 -2 21 -8 26 -16c5 -7 7 -18 7 -33v-10c0 -12 -3 -38 -9 -76l-30 -214c-5 -36 -9 -60 -12 -73c-4 -18 -9 -32 -15 -41c-8 -12 -21 -19 -40 -23
c-14 -2 -43 -4 -88 -4h-7h-220h-8c-43 0 -71 2 -85 4c-16 3 -26 9 -32 17c-4 8 -7 19 -7 33v12c1 13 4 38 9 75c4 21 14 92 30 214zM249 356c-16 0 -27 0 -32 -1c-6 -1 -11 -3 -14 -6c-2 -2 -4 -8 -6 -17c0 -2 -1 -7 -2 -13l-25 -177h189h7h12c4 1 7 2 9 4s4 5 4 9
c2 4 3 11 5 23l25 178h-172z" />
    <glyph glyph-name="p" unicode="p" horiz-adv-x="576" 
d="M112 -63c-6 -43 -11 -71 -15 -85c-4 -18 -11 -31 -20 -39c-8 -8 -22 -13 -42 -15c-13 -2 -41 -3 -85 -3l73 522l5 37c6 43 10 71 13 84c6 21 14 35 24 42c8 6 20 10 34 12c15 2 45 3 89 3h2h220h2c47 0 77 -1 90 -4c14 -2 24 -6 30 -13c7 -8 10 -20 10 -37
c0 -6 0 -13 -1 -22c-1 -11 -4 -33 -9 -65l-30 -214c-5 -41 -9 -68 -13 -81c-4 -18 -11 -31 -19 -39s-20 -14 -37 -17c-14 -2 -40 -3 -79 -3h-13h-220zM326 140c10 0 17 1 21 1c5 2 8 3 10 5c2 3 4 7 5 11s2 10 3 20l25 177h-179c-13 0 -22 0 -26 -1c-4 0 -7 -2 -9 -4
s-4 -6 -6 -12c-1 -3 -3 -10 -5 -20l-24 -176v-1h178h4h3z" />
    <glyph glyph-name="q" unicode="q" 
d="M484 -205c-54 0 -88 3 -102 9c-13 6 -21 18 -25 35c0 7 -1 15 -1 24v20c2 20 7 59 15 117h-220h-15c-40 0 -67 2 -81 4c-16 4 -27 12 -32 22c-2 7 -4 16 -4 28v8c1 13 4 39 9 79l30 214c6 41 11 68 14 80c5 20 12 34 20 42c9 9 22 14 40 16c14 2 44 2 88 2h220
c49 0 80 -1 93 -3c16 -3 26 -9 32 -17c5 -7 7 -18 7 -34c0 -6 0 -13 -1 -23c-1 -11 -4 -32 -8 -63l-30 -214l-20 -141zM390 141l25 177c2 12 3 19 3 22c0 5 0 8 -2 9c-2 3 -5 5 -9 5c-3 1 -10 1 -22 1h-185l-25 -179c-1 -11 -2 -18 -2 -22c0 -2 1 -5 1 -7c2 -2 4 -4 8 -5
c4 0 10 -1 19 -1h3h186z" />
    <glyph glyph-name="r" unicode="r" horiz-adv-x="578" 
d="M70 355c6 38 10 63 12 75c5 22 12 37 20 45c8 9 21 15 37 17c14 2 37 3 71 3h22h362c-6 -41 -10 -68 -14 -82c-5 -19 -12 -33 -22 -41c-9 -8 -24 -13 -45 -15c-13 -1 -40 -2 -82 -2h-170c-15 0 -25 0 -30 -1c-5 0 -9 -2 -12 -4c-4 -2 -6 -6 -8 -12c-1 -4 -3 -12 -5 -25
l-24 -173c-5 -38 -9 -63 -12 -76c-4 -18 -9 -32 -17 -41c-7 -8 -17 -14 -31 -18c-14 -3 -48 -5 -102 -5z" />
    <glyph glyph-name="s" unicode="s" horiz-adv-x="568" 
d="M58 355c6 43 11 71 15 84c5 20 13 34 23 41c9 7 22 11 40 13c14 2 39 2 75 2h9h220h142c-6 -46 -12 -76 -17 -90c-6 -20 -16 -33 -30 -40c-8 -4 -18 -6 -32 -8c-12 -1 -35 -2 -67 -2h-15h-181c-14 0 -24 0 -28 -1s-8 -3 -10 -6c-2 -2 -3 -5 -4 -9c0 -3 -1 -10 -3 -21h220
c40 0 66 0 78 -2c22 -2 36 -7 43 -16c7 -7 10 -20 10 -39v-6c0 -12 -3 -38 -8 -78l-5 -36c-6 -44 -12 -74 -16 -88s-8 -23 -14 -30c-8 -9 -19 -15 -34 -18c-14 -3 -47 -5 -98 -5h-220c-52 0 -84 2 -98 5c-12 3 -21 8 -27 15c-5 8 -7 19 -7 34c0 14 3 43 9 87h142h187h23
c4 2 7 3 9 5c2 3 4 7 4 12c1 4 2 10 3 19h-220h-25c-27 0 -47 1 -59 2c-20 2 -33 7 -41 14c-6 7 -10 18 -10 34v12c2 14 6 40 12 79z" />
    <glyph glyph-name="t" unicode="t" horiz-adv-x="559" 
d="M270 700c38 0 65 -1 80 -3c28 -2 44 -10 50 -24c3 -6 4 -15 4 -26c0 -6 0 -13 -2 -22c0 -9 -3 -31 -9 -66l-9 -64h78h142c-6 -46 -11 -75 -15 -89c-5 -16 -12 -28 -21 -36c-9 -6 -24 -11 -44 -14c-13 -1 -40 -2 -82 -2h-78l-5 -36l-20 -141l-5 -37h78h142
c-5 -41 -9 -68 -13 -82c-5 -18 -12 -32 -20 -40c-9 -8 -24 -13 -44 -16c-13 -1 -39 -2 -78 -2h-6h-79h-6c-35 0 -59 1 -73 1c-26 3 -42 10 -49 20c-4 7 -6 17 -6 29v15c2 13 6 38 12 75l5 37l20 141l5 36h-142c5 36 9 60 11 72c6 25 13 42 22 51c10 8 24 14 44 16
c13 2 34 2 64 2h21z" />
    <glyph glyph-name="u" unicode="u" 
d="M78 496c44 0 73 -1 86 -3c21 -2 34 -8 40 -18c5 -6 7 -16 7 -30c0 -6 0 -13 -2 -21c0 -8 -3 -31 -8 -69l-25 -178c-1 -10 -2 -16 -3 -20c0 -4 1 -8 1 -10c2 -2 4 -3 7 -5c4 -1 12 -1 25 -1h185l30 214l20 141c48 0 78 -1 91 -4c18 -2 29 -9 34 -19c4 -7 6 -18 6 -32v-13
c-1 -12 -4 -36 -9 -73l-30 -214c-4 -36 -8 -60 -11 -73c-4 -19 -10 -33 -16 -42c-8 -11 -22 -18 -41 -22c-13 -2 -37 -4 -72 -4h-22h-220h-22c-34 0 -57 2 -70 4c-18 3 -29 10 -35 20c-3 8 -5 18 -5 30c0 6 1 13 1 20c1 12 4 35 9 67c4 27 9 65 16 114c8 50 12 82 14 100z
" />
    <glyph glyph-name="v" unicode="v" horiz-adv-x="543" 
d="M80 496c43 0 71 0 84 -2c22 -2 37 -8 45 -17c10 -9 18 -26 22 -51c3 -12 7 -35 11 -70l30 -215h42h44c12 0 19 1 23 1c4 1 6 2 8 4s3 4 4 8c2 4 3 11 4 23l21 151l24 168h20c28 0 47 0 59 -2c21 -2 35 -6 42 -14c7 -7 10 -20 10 -38v-7c0 -12 -3 -39 -9 -81l-30 -213
c-6 -41 -10 -68 -14 -82c-4 -17 -9 -30 -17 -38s-19 -14 -35 -17c-14 -2 -41 -4 -82 -4h-14h-80c-52 0 -85 2 -99 5c-15 4 -26 10 -34 19c-6 8 -11 20 -16 36c-2 14 -7 41 -13 81l-25 174z" />
    <glyph glyph-name="w" unicode="w" 
d="M78 496c42 0 70 0 83 -2c19 -2 32 -7 39 -15c8 -8 10 -19 10 -37c0 -6 0 -14 -2 -24c0 -11 -3 -32 -8 -62l-25 -179c-1 -10 -2 -17 -2 -21s1 -7 2 -9c2 -2 4 -4 8 -5c4 0 12 -1 26 -1l26 191l24 164c44 0 72 -1 85 -3c20 -2 33 -9 39 -21c4 -8 6 -19 6 -33
c0 -4 0 -9 -1 -15c0 -12 -3 -34 -7 -68l-25 -178c-1 -9 -2 -15 -2 -19c0 -5 0 -9 1 -11c2 -3 5 -5 9 -6c4 0 13 -1 26 -1l29 202l21 153c45 0 74 -1 87 -3c19 -2 31 -8 37 -17c6 -7 8 -18 8 -34v-6c0 -12 -3 -39 -9 -81l-30 -214c-5 -39 -9 -65 -13 -78
c-4 -17 -9 -30 -15 -39c-9 -11 -24 -18 -46 -21c-14 -2 -43 -3 -88 -3h-40h-142h-39c-46 0 -76 2 -90 4c-18 3 -30 10 -36 20c-3 8 -5 18 -5 31v5c1 14 4 41 9 81l30 215z" />
    <glyph glyph-name="x" unicode="x" horiz-adv-x="568" 
d="M50 355c6 45 11 74 15 88c5 17 12 29 20 36c10 8 24 13 43 15c14 2 42 2 84 2l-20 -141l-5 -37h220l5 38c6 44 11 73 15 86c6 20 14 34 25 41c8 6 20 9 35 11c14 2 43 2 87 2l-25 -178c-2 -9 -4 -17 -7 -25c-2 -7 -6 -13 -10 -19s-9 -11 -16 -15c-6 -4 -13 -7 -21 -10
c7 -2 13 -5 18 -9c6 -4 9 -9 11 -15c4 -6 6 -13 6 -22c1 -7 1 -15 -1 -25l-5 -37c-6 -42 -10 -70 -14 -84c-4 -18 -11 -31 -20 -39c-8 -6 -19 -11 -35 -14c-14 -2 -45 -4 -93 -4l20 141l5 37h-220l-5 -37c-6 -43 -11 -71 -15 -85c-5 -19 -13 -33 -23 -41
c-9 -6 -22 -10 -40 -12c-13 -2 -41 -3 -84 -3l20 141l5 37c2 12 4 22 7 31c4 9 8 16 13 22c6 6 11 10 17 13s11 5 17 5c-6 2 -12 5 -17 8c-5 5 -9 11 -13 17c-2 4 -3 9 -5 15c-1 9 -1 19 1 29z" />
    <glyph glyph-name="y" unicode="y" horiz-adv-x="571" 
d="M38 496h65c29 -1 48 -6 56 -15c8 -6 11 -18 11 -36v-6c0 -10 -3 -37 -9 -83l-30 -216h182c15 0 24 1 27 2c5 2 8 5 10 9c1 2 2 5 3 9s2 9 3 16l25 180l20 140c44 0 72 0 85 -2c22 -3 36 -11 41 -23c4 -7 5 -17 5 -30c0 -8 0 -18 -2 -31c-1 -10 -3 -28 -7 -54l-30 -216
l-20 -140l-9 -65c-5 -39 -9 -65 -13 -79c-4 -18 -11 -32 -19 -41c-9 -10 -25 -16 -49 -19c-13 -1 -40 -2 -81 -2h-220h-142c8 39 14 65 17 77c7 23 16 39 26 47s26 13 47 15c12 2 33 2 63 2h9h164c20 0 32 1 38 2c8 2 14 6 17 11c2 5 4 11 5 19c2 6 3 17 5 33h-220h-10
c-38 0 -64 1 -77 3c-18 3 -31 9 -37 17c-5 8 -8 19 -8 35c0 3 1 6 1 8c0 13 3 39 8 77l30 216z" />
    <glyph glyph-name="z" unicode="z" 
d="M78 495h142h220h22c30 0 52 0 64 -2c16 -2 27 -6 33 -12c8 -8 12 -21 12 -41v-7c0 -13 -3 -39 -8 -78l-5 -37c-6 -38 -10 -64 -13 -78c-4 -18 -10 -32 -18 -41c-8 -10 -23 -16 -43 -19c-13 -2 -38 -3 -75 -3h-13h-221c-1 -9 -2 -15 -2 -19c0 -6 0 -10 1 -13
c2 -2 4 -3 8 -4c4 0 10 0 20 -1h189h142c-4 -32 -8 -53 -10 -65c-4 -21 -10 -36 -16 -46c-7 -12 -19 -20 -35 -24c-14 -3 -48 -5 -101 -5h-220c-44 0 -73 1 -87 3c-20 3 -33 9 -39 19c-4 8 -6 18 -6 32c0 5 1 10 1 14c1 13 4 37 8 72l5 37c5 35 9 58 11 70c5 26 12 43 22 52
c8 7 18 12 31 14c14 4 42 5 82 5h16h220c2 8 3 13 3 16c1 8 0 14 -3 16c-2 2 -5 4 -10 4c-3 1 -10 1 -22 1h-183c-46 0 -76 1 -90 3c-19 3 -32 10 -38 20c-3 7 -5 16 -5 28v8c1 14 5 41 11 81z" />
  </font>
</defs>
</svg>
