<svg width="1280" height="591" viewBox="0 0 1280 591" fill="none" xmlns="http://www.w3.org/2000/svg">
<path d="M260.479 0.737271L244.131 3.33154L241.947 -10.8187L258.295 -13.413L260.479 0.737271Z" fill="#98D147"/>
<path d="M208.532 171.015L223.912 175.425L218.951 192.728L203.571 188.318L208.532 171.015Z" fill="#E963D2"/>
<path d="M203.506 544.082L196.784 534.872L205.718 529.111L212.44 538.321L203.506 544.082Z" fill="#FFFF33"/>
<path d="M99.4094 232.311L99.8055 249.07L88.4047 248.921L88.9699 232.439L99.4094 232.311Z" fill="#E963D2"/>
<path d="M139.47 139.768L150.467 130.438L161.72 141.987L149.485 152.003L139.47 139.768Z" fill="#98D147"/>
<path d="M196.766 266.469L190.708 280.337L181.647 275.658L187.704 261.79L196.766 266.469Z" fill="#E963D2"/>
<path d="M310.845 336.632L295.055 330.024L299.734 320.962L315.524 327.571L310.845 336.632Z" fill="#E963D2"/>
<path d="M17.9803 349.402L9.74591 341.839L17.5842 332.644L25.8187 340.206L17.9803 349.402Z" fill="#FFFF33"/>
<path d="M40.411 162.338L40.2628 173.739L30.7845 174.142L30.9328 162.741L40.411 162.338Z" fill="#70C299"/>
<path d="M230.69 126.394L244.571 117.891L252.389 130.535L238.507 139.038L230.69 126.394Z" fill="#E963D2"/>
<path d="M74.6759 97.2621L65.735 110.303L51.733 101.086L60.6739 88.0455L74.6759 97.2621Z" fill="#D194C2"/>
<path d="M394.25 20.3699L394.236 34.9302L377.753 34.365L377.767 19.8048L394.25 20.3699Z" fill="#AACC66"/>
<path d="M5.28714 408.18L16.8292 404.208L21.756 423.306L10.2139 427.278L5.28714 408.18Z" fill="#FFFF33"/>
<path d="M305.881 212.453L303.528 231.544L287.597 229.056L290.911 210.241L305.881 212.453Z" fill="#98D147"/>
<path d="M192.159 344.211L211.808 337.362L215.78 348.904L196.131 355.753L192.159 344.211Z" fill="#E963D2"/>
<path d="M366.269 121.578L385.495 127.091L381.084 142.471L361.859 136.958L366.269 121.578Z" fill="#AACC66"/>
<path d="M241.076 325.989L248.922 309.513L265.673 316.397L257.552 333.834L241.076 325.989Z" fill="#70C299"/>
<path d="M83.0497 390.947L83.8835 380.783L99.815 383.271L98.9811 393.435L83.0497 390.947Z" fill="#E963D2"/>
<path d="M-4.57588 235.783L3.26244 226.588L17.6744 238.002L9.8361 247.198L-4.57588 235.783Z" fill="#FFFF33"/>
<path d="M298.986 385.246L301.742 375.634L314.239 379.217L311.482 388.83L298.986 385.246Z" fill="#E963D2"/>
<path d="M105.675 0.0402812L112.397 9.24985L97.0025 19.3999L91.2418 10.4659L105.675 0.0402812Z" fill="#AACC66"/>
<path d="M234.173 74.3375L221.253 83.1163L212.474 70.196L226.356 61.6929L234.173 74.3375Z" fill="#D194C2"/>
<path d="M115.251 329.44L131.041 336.049L122.644 354.447L106.854 347.839L115.251 329.44Z" fill="#E963D2"/>
<path d="M179.289 443.511L190.266 456.021L180.781 463.704L169.804 451.194L179.289 443.511Z" fill="#AACC66"/>
<path d="M252.572 514.458L252.728 495.778L272.645 495.247L272.49 513.928L252.572 514.458Z" fill="#D194C2"/>
<path d="M36.3742 506.56L30.3172 520.428L17.4108 514.646L23.4679 500.779L36.3742 506.56Z" fill="#E963D2"/>
<path d="M158.498 207.643L166.478 194.326L179.794 202.306L171.814 215.622L158.498 207.643Z" fill="#98D147"/>
<path d="M180.787 24.6994L165.965 11.0866L173.528 2.85216L188.35 16.465L180.787 24.6994Z" fill="#FFFF33"/>
<path d="M2.61592 40.1887L3.01896 49.667L-8.38183 49.5188L-8.78488 40.0405L2.61592 40.1887Z" fill="#98D147"/>
<path d="M328.484 133.63L308.841 133.199L308.997 114.518L328.639 114.949L328.484 133.63Z" fill="#E963D2"/>
<path d="M262.678 432.052L266.099 445.516L250.161 450.309L245.779 436.569L262.678 432.052Z" fill="#98D147"/>
<path d="M61.1185 53.8432L51.089 56.1688L45.2009 36.7953L55.2305 34.4697L61.1185 53.8432Z" fill="#E963D2"/>
<path d="M143.609 408.312L153.921 397.745L163.117 405.584L153.49 417.387L143.609 408.312Z" fill="#FFFF33"/>
<path d="M157.896 550.769L143.76 538.393L156.136 524.257L170.272 536.632L157.896 550.769Z" fill="#FFFF33"/>
<path d="M293.558 26.8673L302.196 43.9083L285.431 51.5845L278.03 33.8579L293.558 26.8673Z" fill="#98D147"/>
<path d="M57.0515 285.704L50.9944 299.572L40.0105 294.342L46.0676 280.474L57.0515 285.704Z" fill="#98D147"/>
<path d="M364.773 250.146L345.265 252.875L342.537 233.367L362.045 230.638L364.773 250.146Z" fill="#AACC66"/>
<path d="M330.499 181.021L349.724 186.534L345.038 202.875L325.813 197.363L330.499 181.021Z" fill="#98D147"/>
<path d="M337.121 150.671L355.123 142.309L363.485 160.311L345.483 168.673L337.121 150.671Z" fill="#FFFF33"/>
<path d="M72.2513 479.397L80.0896 470.201L93.5403 481.34L85.702 490.536L72.2513 479.397Z" fill="#FFFF33"/>
<path d="M265.592 545.24L257.196 563.638L248.134 558.959L256.531 540.561L265.592 545.24Z" fill="#70C299"/>
<path d="M155.463 76.735L169.331 82.792L162.171 100.505L147.343 94.172L155.463 76.735Z" fill="#98D147"/>
<path d="M110.349 139.74L95.2307 148.929L86.042 133.811L100.199 124.346L110.349 139.74Z" fill="#FFFF33"/>
<path d="M41.8145 -13.0698L49.1015 -20.343L61.7253 -6.32019L54.4383 0.952978L41.8145 -13.0698Z" fill="#E963D2"/>
<path d="M92.4535 180.382L103.989 183.69L99.0272 200.993L87.492 197.685L92.4535 180.382Z" fill="#FFFF33"/>
<path d="M377.712 78.0457L389.119 70.9138L395.566 81.0846L384.158 88.2165L377.712 78.0457Z" fill="#E963D2"/>
<path d="M228.738 445.206L236.717 431.89L250.034 439.869L242.054 453.186L228.738 445.206Z" fill="#D194C2"/>
<path d="M4.92572 355.021L-2.08568 361.333L-13.7482 347.586L-6.73683 341.274L4.92572 355.021Z" fill="#D194C2"/>
<path d="M234.134 259.5L243.344 252.778L250.066 261.987L240.856 268.709L234.134 259.5Z" fill="#E963D2"/>
<path d="M271.512 386.731L254.747 394.407L250.223 384.788L266.989 377.112L271.512 386.731Z" fill="#D194C2"/>
<path d="M227.202 327.212L235.174 321.175L243.133 329.699L235.161 335.736L227.202 327.212Z" fill="#D194C2"/>
<path d="M113.41 531.771L97.0542 541.645L88.5511 527.763L104.906 517.889L113.41 531.771Z" fill="#E963D2"/>
<path d="M330.2 62.3413L349.425 67.854L344.188 86.118L324.963 80.6053L330.2 62.3413Z" fill="#70C299"/>
<path d="M289.946 358.727L280.729 372.729L265.766 363.237L274.982 349.235L289.946 358.727Z" fill="#70C299"/>
<path d="M331.618 304.097L320.889 319.746L313.064 314.382L322.832 298.457L331.618 304.097Z" fill="#D194C2"/>
<path d="M119.286 275.461L135.627 280.147L131.492 294.566L115.151 289.88L119.286 275.461Z" fill="#98D147"/>
<path d="M222.609 390.393L234.836 387.658L237.565 407.166L224.652 408.664L222.609 390.393Z" fill="#70C299"/>
<path d="M160.103 252.836L160.499 269.594L145.664 270.541L145.543 252.822L160.103 252.836Z" fill="#98D147"/>
<path d="M332.97 38.1684L339.303 23.3395L355.093 29.9479L348.76 44.7768L332.97 38.1684Z" fill="#AACC66"/>
<path d="M58.3836 473.34L55.7546 493.392L40.7844 491.18L43.4134 471.128L58.3836 473.34Z" fill="#FFFF33"/>
<path d="M68.6049 125.69L77.1358 110.451L91.4134 118.706L81.9213 133.67L68.6049 125.69Z" fill="#D194C2"/>
<path d="M281.125 389.488L283.034 404.599L271.082 406.373L269.173 391.262L281.125 389.488Z" fill="#D194C2"/>
<path d="M80.9556 282.155L91.1195 282.989L88.7662 302.08L77.641 300.971L80.9556 282.155Z" fill="#70C299"/>
<path d="M823.947 81.7164L814.947 74.7164L821.947 66.7164L830.947 73.7164L823.947 81.7164Z" fill="#FFFF33"/>
<path d="M595.947 5.71643L605.947 -1.28357L615.947 15.7164L605.947 22.7164L595.947 5.71643Z" fill="#FFFF33"/>
<path d="M489.947 8.71643L475.947 -3.28357L483.947 -12.2836L497.947 0.716431L489.947 8.71643Z" fill="#E963D2"/>
<path d="M430.947 24.7164L441.947 26.7164L439.947 38.7164L428.947 36.7164L430.947 24.7164Z" fill="#E963D2"/>
<path d="M547.947 29.7164L539.947 42.7164L528.947 35.7164L536.947 22.7164L547.947 29.7164Z" fill="#E963D2"/>
<path d="M772.947 -8.28357L786.947 0.716431L779.947 10.7164L765.947 1.71643L772.947 -8.28357Z" fill="#AACC66"/>
<path d="M862.947 39.7164L857.947 21.7164L876.947 15.7164L881.947 33.7164L862.947 39.7164Z" fill="#D194C2"/>
<path d="M652.947 91.7164L650.947 106.716L636.947 104.716L638.947 89.7164L652.947 91.7164Z" fill="#E963D2"/>
<path d="M380.947 78.7164L370.947 62.7164L385.947 53.7164L395.947 69.7164L380.947 78.7164Z" fill="#E963D2"/>
<path d="M781.947 100.716L764.947 92.7164L772.947 75.7164L789.947 83.7164L781.947 100.716Z" fill="#FFFF33"/>
<path d="M453.947 104.716L441.947 96.7164L447.947 87.7164L459.947 95.7164L453.947 104.716Z" fill="#E963D2"/>
<path d="M679.947 55.7164L684.947 44.7164L700.947 51.7164L695.947 62.7164L679.947 55.7164Z" fill="#FFFF33"/>
<path d="M883.947 65.7164L880.947 85.7164L870.947 83.7164L873.947 63.7164L883.947 65.7164Z" fill="#70C299"/>
<path d="M594.947 57.7164L588.947 71.7164L570.947 62.7164L576.947 49.7164L594.947 57.7164Z" fill="#AACC66"/>
<path d="M384.947 67.7164L370.947 79.7164L364.947 71.7164L378.947 59.7164L384.947 67.7164Z" fill="#E963D2"/>
<path d="M379.947 10.7164L370.947 4.71643L376.947 -4.28357L385.947 1.71643L379.947 10.7164Z" fill="#98D147"/>
<path d="M511.947 71.7164L521.947 82.7164L512.947 90.7164L502.947 79.7164L511.947 71.7164Z" fill="#70C299"/>
<path d="M733.947 94.7164L720.947 108.716L708.947 97.7164L721.947 83.7164L733.947 94.7164Z" fill="#E963D2"/>
<path d="M430.947 11.7164L418.947 25.7164L404.947 13.7164L417.947 -0.283569L430.947 11.7164Z" fill="#70C299"/>
<path d="M435.947 67.7164L444.947 60.7164L456.947 74.7164L447.947 82.7164L435.947 67.7164Z" fill="#AACC66"/>
<path d="M664.947 53.7164L667.947 73.7164L652.947 75.7164L649.947 55.7164L664.947 53.7164Z" fill="#FFFF33"/>
<path d="M578.947 79.7164L571.947 91.7164L558.947 83.7164L566.947 71.7164L578.947 79.7164Z" fill="#E963D2"/>
<path d="M1003.37 -16.035L1018.89 -16.3245L1018.91 -1.76428L1003.11 -2.43603L1003.37 -16.035Z" fill="#70C299"/>
<path d="M945.415 282.505L948.729 301.32L938.565 302.154L936.212 283.063L945.415 282.505Z" fill="#AACC66"/>
<path d="M1225.89 117.817L1241.27 113.407L1246.23 130.709L1230.85 135.12L1225.89 117.817Z" fill="#E963D2"/>
<path d="M1120.79 393.462L1115.03 402.396L1100.87 392.932L1106.64 383.998L1120.79 393.462Z" fill="#98D147"/>
<path d="M1165.83 227.625L1175.04 241.627L1165.3 247.543L1157.04 233.265L1165.83 227.625Z" fill="#E963D2"/>
<path d="M1150.76 127.916L1155.14 114.176L1170.8 118.007L1165.74 132.984L1150.76 127.916Z" fill="#98D147"/>
<path d="M1266.49 205.002L1268.7 219.972L1258.54 220.806L1256.33 205.836L1266.49 205.002Z" fill="#E963D2"/>
<path d="M1158.82 370.075L1147.83 368.025L1149.6 356.073L1160.59 358.123L1158.82 370.075Z" fill="#FFFF33"/>
<path d="M1078.71 199.549L1084.63 209.296L1076.8 214.661L1070.89 204.914L1078.71 199.549Z" fill="#70C299"/>
<path d="M987.701 404.578L996.345 394.817L1007.62 405.109L998.974 414.869L987.701 404.578Z" fill="#FFFF33"/>
<path d="M1221.03 68.2344L1228.3 53.6672L1241.63 60.2478L1234.36 74.815L1221.03 68.2344Z" fill="#E963D2"/>
<path d="M1073.29 126.204L1072.61 142.001L1055.86 141.605L1056.53 125.808L1073.29 126.204Z" fill="#D194C2"/>
<path d="M1179.2 426.648L1186.89 417.163L1201.18 430.748L1193.5 440.233L1179.2 426.648Z" fill="#FFFF33"/>
<path d="M1236.02 370.826L1231.34 361.764L1246.17 355.431L1250.85 364.493L1236.02 370.826Z" fill="#E963D2"/>
<path d="M950.265 183.326L951.099 193.49L934.206 196.253L933.372 186.089L950.265 183.326Z" fill="#98D147"/>
<path d="M1079.48 285.674L1081.26 273.722L1099.53 275.765L1097.75 287.717L1079.48 285.674Z" fill="#FFFF33"/>
<path d="M1048.05 27.3284L1058.64 31.5765L1050.96 48.3418L1041.34 43.8181L1048.05 27.3284Z" fill="#AACC66"/>
<path d="M1020.31 322.405L1036.79 314.56L1044.91 331.997L1027.2 339.157L1020.31 322.405Z" fill="#E963D2"/>
<path d="M1078.14 458.749L1061.37 451.073L1066.58 440.217L1083.62 448.854L1078.14 458.749Z" fill="#E963D2"/>
<path d="M1196.4 22.242L1190.09 36.5336L1175.8 30.2286L1183.07 15.6614L1196.4 22.242Z" fill="#D194C2"/>
<path d="M1033.94 210.306L1037.8 223.764L1025.31 227.347L1021.45 213.889L1033.94 210.306Z" fill="#98D147"/>
<path d="M1025.83 490.392L1036.96 489.283L1038.34 501.369L1027.22 502.479L1025.83 490.392Z" fill="#E963D2"/>
<path d="M952.084 73.573L938.343 69.1906L942.726 55.4503L956.466 59.8328L952.084 73.573Z" fill="#FFFF33"/>
<path d="M1139.68 462.949L1135.57 477.65L1123.07 473.954L1127.17 459.252L1139.68 462.949Z" fill="#E963D2"/>
<path d="M1230.73 301.601L1247.62 298.838L1250.25 318.89L1233.36 321.653L1230.73 301.601Z" fill="#E963D2"/>
<path d="M888.599 48.0845L879.269 59.0822L868.271 49.7522L877.601 38.7544L888.599 48.0845Z" fill="#FFFF33"/>
<path d="M1257.7 493.605L1259.91 508.575L1245.9 510.512L1243.69 495.542L1257.7 493.605Z" fill="#E963D2"/>
<path d="M1202.86 175.393L1202.57 159.871L1218.1 159.582L1218.39 175.103L1202.86 175.393Z" fill="#98D147"/>
<path d="M1124.82 8.43684L1105.04 4.74696L1107.09 -6.24385L1126.87 -2.55397L1124.82 8.43684Z" fill="#FFFF33"/>
<path d="M981.931 115.989L987.296 123.813L977.549 129.729L972.184 121.905L981.931 115.989Z" fill="#98D147"/>
<path d="M1307.8 22.5479L1290.91 32.5914L1281.15 16.6668L1298.03 6.62342L1307.8 22.5479Z" fill="#E963D2"/>
<path d="M1038.78 96.567L1031.51 103.854L1016.25 90.5446L1023.52 83.2575L1038.78 96.567Z" fill="#E963D2"/>
<path d="M992.653 556.082L978.63 543.458L990.568 530.673L1004.59 543.296L992.653 556.082Z" fill="#E963D2"/>
<path d="M926.238 338.978L929.821 351.475L920.209 354.231L916.625 341.735L926.238 338.978Z" fill="#98D147"/>
<path d="M943.886 407.779L955.159 418.071L944.182 430.581L933.184 421.251L943.886 407.779Z" fill="#E963D2"/>
<path d="M907.701 201.773L894.116 216.071L885.868 209.074L899.177 193.814L907.701 201.773Z" fill="#D194C2"/>
<path d="M954.858 246.507L970.648 239.899L977.257 255.689L961.467 262.298L954.858 246.507Z" fill="#D194C2"/>
<path d="M1158.2 295.351L1160.41 310.322L1148.32 311.707L1146.11 296.736L1158.2 295.351Z" fill="#98D147"/>
<path d="M876.292 106.749L867.103 121.868L855.696 114.736L866.121 100.303L876.292 106.749Z" fill="#E963D2"/>
<path d="M1069.99 560.954L1056.25 556.571L1059.54 546.266L1073.28 550.648L1069.99 560.954Z" fill="#E963D2"/>
<path d="M1273.73 451.558L1275.5 439.606L1292.81 441.924L1291.04 453.876L1273.73 451.558Z" fill="#FFFF33"/>
<path d="M1192.57 476.909L1190.67 492.021L1170.88 488.331L1173.07 474.181L1192.57 476.909Z" fill="#AACC66"/>
<path d="M1130.92 65.9851L1145.89 63.7731L1149.2 82.5883L1133.27 85.076L1130.92 65.9851Z" fill="#98D147"/>
<path d="M1126.05 143.324L1118.1 159.128L1102.29 151.176L1109.28 135.648L1126.05 143.324Z" fill="#FFFF33"/>
<path d="M986.951 50.0511L989.276 40.0216L1007.41 45.224L1005.09 55.2536L986.951 50.0511Z" fill="#E963D2"/>
<path d="M1132.41 187.273L1143.94 183.965L1148.91 201.268L1137.37 204.576L1132.41 187.273Z" fill="#FFFF33"/>
<path d="M993.466 544.406L983.316 559.8L975.343 553.764L985.493 538.37L993.466 544.406Z" fill="#E963D2"/>
<path d="M1051.82 370.589L1057.32 382.534L1045.38 388.04L1039.87 376.095L1051.82 370.589Z" fill="#70C299"/>
<path d="M991.458 167.353L1008.36 171.87L1002.88 189.045L986.941 184.252L991.458 167.353Z" fill="#E963D2"/>
<path d="M1150.73 381.758L1148.12 390.827L1130.95 385.349L1133.55 376.28L1150.73 381.758Z" fill="#D194C2"/>
<path d="M920.172 27.5876L911.507 15.5082L926.47 6.01601L934.174 18.3711L920.172 27.5876Z" fill="#E963D2"/>
<path d="M911.773 150.671L911.511 164.27L895.99 164.559L895.29 151.236L911.773 150.671Z" fill="#70C299"/>
<path d="M916.394 242.973L927.392 252.303L918.062 263.3L907.064 253.97L916.394 242.973Z" fill="#FFFF33"/>
<path d="M972.948 490.992L962.643 487.705L965.93 477.4L976.235 480.687L972.948 490.992Z" fill="#98D147"/>
<path d="M903.356 110.432L887.962 100.282L893.998 92.3094L909.392 102.459L903.356 110.432Z" fill="#98D147"/>
<path d="M1116.65 513.245L1129.29 521.062L1122.85 531.233L1110.2 523.416L1116.65 513.245Z" fill="#70C299"/>
<path d="M1017.76 233.673L1029.29 230.365L1033.98 246.707L1022.44 250.014L1017.76 233.673Z" fill="#98D147"/>
<path d="M975.559 347.722L993.823 342.485L996.855 353.059L978.591 358.296L975.559 347.722Z" fill="#E963D2"/>
<path d="M1022.25 477.896L1014.57 494.661L997.807 486.985L1006.44 469.944L1022.25 477.896Z" fill="#70C299"/>
<path d="M1074.67 421.253L1057.36 426.215L1052.68 409.873L1069.98 404.912L1074.67 421.253Z" fill="#FFFF33"/>
<path d="M1031.91 384.619L1039.32 374.172L1051.96 381.99L1044.83 393.398L1031.91 384.619Z" fill="#AACC66"/>
<path d="M1205.55 253.686L1221.89 249L1226.02 263.419L1209.68 268.105L1205.55 253.686Z" fill="#98D147"/>
<path d="M1042.49 530.348L1049.21 521.139L1064.61 531.289L1058.16 541.46L1042.49 530.348Z" fill="#AACC66"/>
<path d="M1228.17 212.868L1237.39 226.87L1225.31 235.536L1215.82 220.572L1228.17 212.868Z" fill="#98D147"/>
<path d="M1258.76 453.77L1267.16 472.168L1253.29 478.225L1244.89 459.827L1258.76 453.77Z" fill="#FFFF33"/>
<path d="M1083.2 153.529L1082.36 136.085L1098.84 135.52L1098.72 153.24L1083.2 153.529Z" fill="#D194C2"/>
<path d="M1183.26 502.467L1179.84 515.932L1165.14 511.825L1169.52 498.085L1183.26 502.467Z" fill="#E963D2"/>
<path d="M1176.59 279.675L1185.65 274.996L1193.77 292.433L1183.75 297.387L1176.59 279.675Z" fill="#70C299"/>
</svg>
